<svg height="512" viewBox="0 0 512 512" width="512" xmlns="http://www.w3.org/2000/svg"><path d="m270.348 46.929 56.225 113.925 125.727 18.269a16 16 0 0 1 8.867 27.291l-90.977 88.679 21.476 125.216a16 16 0 0 1 -23.215 16.867l-112.451-59.119-112.451 59.119a16 16 0 0 1 -23.215-16.867l21.476-125.216-90.975-88.679a16 16 0 0 1 8.865-27.291l125.725-18.269 56.227-113.925a16 16 0 0 1 28.696 0z" fill="#f5871e"/><path d="m167.6 286.714-70.992-69.2a12 12 0 0 1 6.651-20.468l98.107-14.255 43.875-88.9a12 12 0 0 1 21.522 0l43.875 88.9 98.107 14.255a12 12 0 0 1 6.651 20.468l-70.991 69.2 16.758 97.711a12 12 0 0 1 -17.411 12.65l-87.752-46.133-87.75 46.133a12 12 0 0 1 -17.412-12.65z" fill="#fabe19"/><path d="m104.967 220.923a12 12 0 0 1 -1.71-23.877l98.107-14.255 43.875-88.9a12 12 0 1 1 21.522 10.622l-46.667 94.557a12 12 0 0 1 -9.035 6.565l-104.351 15.165a12.1 12.1 0 0 1 -1.741.123z" fill="#ffdb37"/><g fill="#fabe19"><path d="m256 473.99a16 16 0 0 1 -16-16v-40a16 16 0 0 1 32 0v40a16 16 0 0 1 -16 16z"/><path d="m446.214 335.8a15.976 15.976 0 0 1 -4.947-.788l-38.042-12.36a16 16 0 1 1 9.888-30.434l38.042 12.361a16 16 0 0 1 -4.941 31.221z"/><path d="m350.033 144.548a16 16 0 0 1 -12.931-25.4l23.51-32.36a16 16 0 0 1 25.888 18.803l-23.51 32.361a15.979 15.979 0 0 1 -12.957 6.596z"/><path d="m161.968 144.548a15.979 15.979 0 0 1 -12.958-6.6l-23.51-32.356a16 16 0 1 1 25.888-18.81l23.512 32.361a16 16 0 0 1 -12.931 25.405z"/><path d="m65.785 335.8a16 16 0 0 1 -4.941-31.221l38.043-12.361a16 16 0 1 1 9.888 30.434l-38.042 12.358a15.983 15.983 0 0 1 -4.948.79z"/></g></svg>